<?xml version="1.0" encoding="UTF-8"?><svg id="Capa_2" xmlns="http://www.w3.org/2000/svg" viewBox="0 0 150 150"><defs><style>.cls-1{fill:#726f68;stroke-width:0px;}</style></defs><path class="cls-1" d="M124.88,146.75c-11.92-.48-23.55-2.58-34.86-6.27-17.01-5.55-32.16-14.41-45.47-26.35-13.96-12.52-24.77-27.36-32.35-44.53-4.37-9.91-7.43-20.22-8.87-30.95-.81-6.05-1.29-12.15-1.6-18.25-.37-7.14,2.97-11.64,9.78-13.6,7.48-2.15,14.96-4.35,22.51-6.25,5.75-1.45,12.03-.31,14.94,7.07,3.41,8.67,7.18,17.19,10.7,25.82,2.49,6.1,1.27,10.91-3.78,15.16-3.74,3.15-7.55,6.23-11.41,9.23-1.37,1.07-1.45,2-.71,3.49,8.58,17.15,21.05,30.64,37.62,40.3,1.85,1.08,3.79,1.98,5.67,2.99,1.42.77,2.43.59,3.5-.79,2.94-3.81,6.03-7.51,9.08-11.24,4.11-5.02,9.37-6.43,15.36-3.95,8.75,3.61,17.48,7.29,26.18,11.03,5.67,2.43,8.24,7.55,6.68,13.96-1.97,8.08-4.17,16.11-6.52,24.09-1.78,6.03-6.29,9.08-12.54,9.05-1.3,0-2.6,0-3.9,0Z"/></svg>