<?xml version="1.0" encoding="UTF-8"?><svg id="Capa_2" xmlns="http://www.w3.org/2000/svg" viewBox="0 0 150 150"><defs><style>.cls-1{fill:#fcc501;stroke-width:0px;}</style></defs><path class="cls-1" d="M21.22,54.74c1.71-21.88,12.29-38.3,33.18-47.4,8.71-3.79,17.93-4.73,27.47-3.55,15.82,1.96,28.14,9.6,37.35,22.34,6.66,9.2,9.76,19.79,9.55,31.04-.18,9.63-3.66,18.59-7.99,27.12-7.64,15.06-16.86,29.14-26.76,42.79-3.87,5.33-7.89,10.55-11.91,15.77-3.88,5.04-10.29,5.18-14.08-.01-8.62-11.78-17.37-23.49-25.35-35.69-5.84-8.92-10.87-18.42-15.63-27.98-3.67-7.39-5.72-15.41-5.84-24.43ZM93,57.06c-.04-9.85-8.29-18.1-18.04-18.02-9.72.08-18,8.52-17.87,18.21.14,9.61,8.55,17.94,18.05,17.86,9.58-.08,17.89-8.48,17.85-18.05Z"/></svg>